HIERARCHY
ROOT Hips
{
	OFFSET 0.000000 0.000000 0.000000
	CHANNELS 6 Xposition Yposition Zposition Zrotation Yrotation Xrotation
	JOINT LHipJoint
	{
		OFFSET 0.000000 0.000000 0.000000
		CHANNELS 3 Zrotation Yrotation Xrotation
		JOINT LeftUpLeg
		{
			OFFSET 1.363060 -1.794630 0.839290
			CHANNELS 3 Zrotation Yrotation Xrotation
			JOINT LeftLeg
			{
				OFFSET 2.448110 -6.726130 0.000000
				CHANNELS 3 Zrotation Yrotation Xrotation
				JOINT LeftFoot
				{
					OFFSET 2.562200 -7.039590 0.000000
					CHANNELS 3 Zrotation Yrotation Xrotation
					JOINT LeftToeBase
					{
						OFFSET 0.157640 -0.433110 2.322550
						CHANNELS 3 Zrotation Yrotation Xrotation
						End Site
						{
							OFFSET 0.000000 0.000000 0.000000
						}
					}
				}
			}
		}
	}
	JOINT RHipJoint
	{
		OFFSET 0.000000 0.000000 0.000000
		CHANNELS 3 Zrotation Yrotation Xrotation
		JOINT RightUpLeg
		{
			OFFSET -1.305520 -1.794630 0.839290
			CHANNELS 3 Zrotation Yrotation Xrotation
			JOINT RightLeg
			{
				OFFSET -2.542530 -6.985550 0.000000
				CHANNELS 3 Zrotation Yrotation Xrotation
				JOINT RightFoot
				{
					OFFSET -2.568260 -7.056230 0.000000
					CHANNELS 3 Zrotation Yrotation Xrotation
					JOINT RightToeBase
					{
						OFFSET -0.164730 -0.452590 2.363150
						CHANNELS 3 Zrotation Yrotation Xrotation
						End Site
						{
							OFFSET 0.000000 0.000000 0.000000
						}
					}
				}
			}
		}
	}
	JOINT LowerBack
	{
		OFFSET 0.000000 0.000000 0.000000
		CHANNELS 3 Zrotation Yrotation Xrotation
		JOINT Spine
		{
			OFFSET 0.028270 2.035590 -0.193380
			CHANNELS 3 Zrotation Yrotation Xrotation
			JOINT Spine1
			{
				OFFSET 0.056720 2.048850 -0.042750
				CHANNELS 3 Zrotation Yrotation Xrotation
				JOINT Neck
				{
					OFFSET 0.000000 0.000000 0.000000
					CHANNELS 3 Zrotation Yrotation Xrotation
					JOINT Neck1
					{
						OFFSET -0.054170 1.746240 0.172020
						CHANNELS 3 Zrotation Yrotation Xrotation
						JOINT Head
						{
							OFFSET 0.104070 1.761360 -0.123970
							CHANNELS 3 Zrotation Yrotation Xrotation
							End Site
							{
								OFFSET 0.000000 0.000000 0.000000
							}
						}
					}
				}
				JOINT LeftShoulder
				{
					OFFSET 0.000000 0.000000 0.000000
					CHANNELS 3 Zrotation Yrotation Xrotation
					JOINT LeftArm
					{
						OFFSET 3.362410 1.200890 -0.311210
						CHANNELS 3 Zrotation Yrotation Xrotation
						JOINT LeftForeArm
						{
							OFFSET 4.983000 -0.000000 -0.000000
							CHANNELS 3 Zrotation Yrotation Xrotation
							JOINT LeftHand
							{
								OFFSET 3.483560 -0.000000 -0.000000
								CHANNELS 3 Zrotation Yrotation Xrotation
								JOINT LeftFingerBase
								{
									OFFSET 0.000000 0.000000 0.000000
									CHANNELS 3 Zrotation Yrotation Xrotation
									JOINT LeftHandIndex1
									{
										OFFSET 0.715260 -0.000000 -0.000000
										CHANNELS 3 Zrotation Yrotation Xrotation
										End Site
										{
											OFFSET 0.000000 0.000000 0.000000
										}
									}
								}
								JOINT LThumb
								{
									OFFSET 0.000000 0.000000 0.000000
									CHANNELS 3 Zrotation Yrotation Xrotation
									End Site
									{
										OFFSET 0.000000 0.000000 0.000000
									}
								}
							}
						}
					}
				}
				JOINT RightShoulder
				{
					OFFSET 0.000000 0.000000 0.000000
					CHANNELS 3 Zrotation Yrotation Xrotation
					JOINT RightArm
					{
						OFFSET -3.136600 1.374050 -0.404650
						CHANNELS 3 Zrotation Yrotation Xrotation
						JOINT RightForeArm
						{
							OFFSET -5.241900 -0.000000 -0.000000
							CHANNELS 3 Zrotation Yrotation Xrotation
							JOINT RightHand
							{
								OFFSET -3.444170 -0.000000 -0.000000
								CHANNELS 3 Zrotation Yrotation Xrotation
								JOINT RightFingerBase
								{
									OFFSET 0.000000 0.000000 0.000000
									CHANNELS 3 Zrotation Yrotation Xrotation
									JOINT RightHandIndex1
									{
										OFFSET -0.622530 -0.000000 -0.000000
										CHANNELS 3 Zrotation Yrotation Xrotation
										End Site
										{
											OFFSET 0.000000 0.000000 0.000000
										}
									}
								}
								JOINT RThumb
								{
									OFFSET 0.000000 0.000000 0.000000
									CHANNELS 3 Zrotation Yrotation Xrotation
									End Site
									{
										OFFSET 0.000000 0.000000 0.000000
									}
								}
							}
						}
					}
				}
			}
		}
	}
}
MOTION
Frames: 5
Frame Time: 0.008333
0.005782 0.005920 0.091064 -0.042214 -0.145840 -0.073859 -0.077716 -0.027037 0.023721 0.112251 -0.323865 0.033042 -0.564760 -0.284658 -1.573122 -0.007313 0.206821 -0.298982 -0.026805 -0.344148 -0.949130 0.055464 -0.014939 -0.079395 0.051991 -0.363645 0.669531 0.066955 0.220398 -0.443486 -0.003219 0.013430 0.035240 0.077838 0.108444 -0.379974 0.109051 0.036334 -0.053999 -0.019847 0.065150 0.036593 -0.074013 0.018976 0.083380 -0.058065 0.030203 0.158351 0.043248 0.034745 -0.114686 0.036341 0.007990 -0.071008 -0.003715 0.003454 -0.000792 -0.059568 0.093447 -0.031381 0.059316 -0.074350 -0.011477 0.031962 -0.058905 0.076763 0.223170 -0.577679 0.022488 0.000000 0.000000 0.000000 0.405490 -0.452464 0.289894 0.018095 -0.019701 0.005559 -0.111336 0.172853 0.332724 -0.191038 0.197366 -0.047871 -0.013744 -0.013338 -0.225767 -0.084976 0.012821 -0.028674 -0.000000 0.000000 0.000000 -0.048906 0.032797 -0.032346
0.209723 1.144305 3.959263 0.700669 1.110135 0.509905 0.563882 0.435789 0.163387 1.259159 0.222573 1.051200 -0.365628 0.061176 -1.492483 0.418756 0.695574 0.765981 0.148807 0.055283 1.924122 0.126000 0.171105 0.413853 0.505022 0.110384 1.459780 0.185159 0.619577 -0.501404 0.011195 -0.446514 1.783182 0.148219 0.162499 0.194475 0.156573 0.289610 0.396243 -0.075380 0.216068 -0.052288 -0.102776 0.039803 -0.112831 0.174263 0.183899 0.580621 0.129774 0.155737 0.252204 0.205401 0.092416 -0.031690 0.074015 0.234863 0.031961 0.542544 0.394818 0.402883 0.370566 0.472464 0.096481 0.094079 -0.009571 1.434547 1.163248 -0.288578 0.574372 -0.024183 0.000000 0.000000 1.516549 1.691617 2.012691 -0.022341 0.175322 0.107900 1.283725 1.060154 0.302184 0.551135 1.210607 -0.007480 0.087692 -0.023745 -0.148633 4.981693 0.261178 3.074732 0.111775 0.000000 0.000000 0.446375 1.217331 0.803159
0.374406 1.492824 4.272276 0.833809 1.085686 0.248461 0.593511 0.500152 -0.032332 1.661430 -0.103439 0.323752 -0.435668 -0.201916 -2.633166 0.571746 0.914472 1.124760 0.258915 0.679799 3.079779 -0.190139 0.290560 0.610877 0.440641 0.278243 1.791624 0.269185 0.825304 -0.736633 0.030735 -0.619424 3.136471 0.173046 0.186419 -0.698898 0.267652 0.443202 0.394653 -0.097286 0.242605 -0.288712 -0.203627 -0.050119 -0.650207 0.265385 0.235836 0.769467 0.091212 0.106315 0.344884 0.385957 0.081217 -0.116366 0.067987 0.322962 0.043228 0.279826 0.372513 0.129057 0.399160 0.500416 0.072850 0.084947 -0.049680 1.252053 1.198430 -0.278249 0.526376 -0.113778 0.000000 0.000000 1.004422 1.568560 1.563456 -0.244474 0.178300 0.124087 1.292882 0.992105 -0.198233 0.275630 1.189942 0.072472 0.086744 -0.068584 -0.199797 4.649515 -0.390934 3.480871 0.147825 0.000000 0.000000 -2.252825 0.877986 -0.275365
0.569217 1.987631 5.050195 1.090246 1.166996 0.132290 0.726945 0.597003 -0.226077 2.097620 -0.519641 -0.519857 -0.462320 -0.601007 -4.281883 0.566083 0.707806 1.194480 0.312496 1.072062 2.952729 -0.863335 0.339621 0.735331 0.200854 0.360116 1.985926 0.339730 0.977003 -1.068268 0.055844 -0.805462 4.283359 0.144779 0.095527 -2.729936 0.160406 0.512790 0.027647 -0.209874 0.118801 -0.746727 -0.424850 -0.197633 -1.410650 0.210045 0.178579 0.697406 -0.060867 -0.114534 0.205074 0.542391 0.039190 -0.304797 -0.005588 0.383971 0.053760 -0.156185 0.255697 -0.637279 0.291772 0.359517 0.006289 0.048251 -0.145475 0.598868 0.913952 -0.428063 0.327700 -0.243953 0.000000 0.000000 0.318084 1.183147 0.701626 -0.534428 0.113413 0.099045 0.642205 0.532134 -1.147064 -0.404962 0.706715 0.028750 0.050799 -0.147228 -0.419299 3.146460 -1.194204 3.853101 0.179980 0.000000 0.000000 -4.993580 0.822129 0.005632
1.279795 2.024942 5.725390 1.216233 0.672632 0.202139 0.798371 0.959454 -0.091136 3.397857 -0.254172 -0.602105 -0.588892 -0.861486 -6.241704 0.563507 1.870057 1.374756 0.543980 1.403747 0.140586 -1.081780 0.390576 0.889709 1.126880 0.562383 2.429193 0.382602 1.030789 -1.024981 0.257042 -1.174783 3.914442 0.141435 -0.393263 -2.894306 1.119853 0.462753 -0.036816 -0.366062 -0.344338 -1.112329 -0.626086 -0.284389 -1.729779 0.412109 0.268737 0.906131 -0.067837 -0.182070 0.387839 0.660140 -0.162835 -0.349870 -0.041343 0.458810 0.104028 -0.125267 0.373940 -1.300419 0.335486 0.150495 -0.090738 0.046114 -0.074018 -0.027944 1.019041 -0.837500 -0.873559 -0.306826 0.000000 0.000000 2.515156 2.614419 2.145936 -0.732626 0.110387 0.088824 -0.347552 0.905510 0.084072 -0.853272 1.219621 -0.303539 -0.177469 -0.156670 -0.591569 4.625696 1.224959 5.246609 0.259116 0.000000 0.000000 -6.837920 1.356839 -1.675794
